<?xml version="1.0" encoding="utf-8"?>
<!-- Generator: Adobe Illustrator 22.0.1, SVG Export Plug-In . SVG Version: 6.00 Build 0)  -->
<svg version="1.1" xmlns="http://www.w3.org/2000/svg" xmlns:xlink="http://www.w3.org/1999/xlink" x="0px" y="0px"
	 viewBox="0 0 100 100" style="enable-background:new 0 0 100 100;" xml:space="preserve">
<style type="text/css">
	.st0{fill:#0E406C;stroke:#FFFFFF;stroke-width:2;}
	.st1{fill:#FFFFFF;}
	.st2{fill:#1C8EC2;stroke:#E2EFF9;stroke-width:1.7012;}
	.st3{fill:#6698CE;}
	.st4{fill:#00426E;}
	.st5{fill:#6395CB;}
	.st6{opacity:0.8;}
	.st7{opacity:0.7;}
	.st8{opacity:0.6;}
	.st9{opacity:0.5;}
	.st10{fill:#00416D;}
	.st11{fill:#E5E6E6;}
	.st12{fill:#354455;}
	.st13{fill:#6E98CC;}
	.st14{fill:#DA9522;}
	.st15{fill:none;stroke:#DA9522;stroke-width:0.7671;stroke-miterlimit:10;}
	.st16{fill:url(#SVGID_1_);}
	.st17{fill:url(#SVGID_2_);}
	.st18{display:none;}
	.st19{display:inline;}
	.st20{opacity:0.1;fill:#AD1E1D;}
	.st21{fill:none;}
	.st22{display:inline;fill:none;}
</style>
<g id="Capa_1">
	<g>
		<path class="st3" d="M81.2,11l-4-8.6l-2.1,4.4C67.8,2.5,59.2,0,50,0C22.4,0,0,22.4,0,50c0,12.8,4.8,24.5,12.8,33.4l2.6,9l2.6-3.9
			C26.7,95.6,37.9,100,50,100c27.6,0,50-22.4,50-50C100,34.2,92.7,20.2,81.2,11z M50,97.1c-11.4,0-21.8-4.1-30-10.8l4.3-2.9
			l-10.1-2.9C7.1,72.3,2.9,61.7,2.9,50C2.9,24,24,2.9,50,2.9c8.5,0,16.5,2.3,23.4,6.3l-3.6,3.3l10.4,1.4
			C90.5,22.5,97.1,35.5,97.1,50C97.1,76,76,97.1,50,97.1z"/>
		<g>
			<g>
				<path class="st12" d="M69,43.1H44.6c-0.6,0-1.1,0.5-1.1,1s0.5,1,1.1,1h24.3c0.6,0,1.1-0.5,1.1-1S69.6,43.1,69,43.1z"/>
				<path class="st12" d="M69,48H44.6c-0.6,0-1.1,0.5-1.1,1s0.5,1,1.1,1h24.3c0.6,0,1.1-0.5,1.1-1C70.1,48.5,69.6,48,69,48z"/>
				<path class="st12" d="M69,52.8H44.6c-0.6,0-1.1,0.5-1.1,1s0.5,1,1.1,1h24.3c0.6,0,1.1-0.5,1.1-1S69.6,52.8,69,52.8z"/>
				<path class="st12" d="M60.8,72.1c0.8,0,1.6,0.3,2.2,0.8l1.6,1.4c0.4,0.4,1.2,0.4,1.7,0.1l2.2-1.6c0.6-0.4,1.4-0.7,2.2-0.7
					c0.8,0,1.6,0.2,2.2,0.7l2,1.5V24.4l-2,1.5c-0.6,0.4-1.4,0.7-2.1,0.7c-0.9,0-1.6-0.3-2.2-0.8l-1.8-1.4c-0.4-0.4-1.2-0.4-1.6,0
					l-1.8,1.5c-0.5,0.5-1.3,0.7-2,0.7c-0.9,0-1.7-0.3-2.2-0.9L58,24.5c-0.3-0.4-1-0.4-1.4-0.1l-1.7,1.4c-0.6,0.5-1.4,0.8-2.2,0.8
					c-0.8,0-1.6-0.3-2.2-0.8l-1.6-1.4c-0.4-0.4-1.2-0.4-1.7-0.1L45,26c-0.6,0.4-1.4,0.7-2.2,0.7c-0.8,0-1.6-0.2-2.2-0.7l-2-1.5v49.7
					l2-1.5c0.6-0.4,1.4-0.7,2.1-0.7c0.9,0,1.6,0.3,2.2,0.8l1.8,1.4c0.4,0.4,1.2,0.4,1.6,0l1.8-1.4c0.5-0.5,1.3-0.7,2-0.7
					c0.9,0,1.7,0.3,2.2,0.9l1.2,1.2c0.3,0.4,1,0.4,1.4,0.1l1.7-1.4C59.2,72.4,60,72.1,60.8,72.1z M65.9,77.2c-0.9,0-1.8-0.3-2.4-0.8
					l-1.7-1.5c-0.4-0.4-1.2-0.4-1.6,0l-1.8,1.5c-0.6,0.5-1.3,0.8-2.2,0.8c-0.8,0-1.7-0.3-2.3-1l-1.3-1.3c-0.4-0.4-1.1-0.4-1.5-0.1
					l-1.8,1.6c-0.6,0.5-1.4,0.8-2.3,0.8c-0.8,0-1.7-0.3-2.3-0.8L43,74.8c-0.4-0.4-1.3-0.4-1.8-0.1L39,76.5c-0.5,0.4-1.1,0.6-1.6,0.6
					c-0.9,0-0.8,0-0.8-1.3V24.2c0-1.4-0.1-2.7,0.8-2.7c0.5,0,1.1,0.2,1.6,0.6l2.3,1.7c0.5,0.4,1.4,0.4,1.9,0l2.3-1.7
					c0.6-0.5,1.3-0.7,2.2-0.7c0.9,0,1.8,0.3,2.4,0.8l1.7,1.5c0.4,0.4,1.2,0.4,1.6,0l1.8-1.5c0.6-0.5,1.3-0.8,2.2-0.8
					c0.8,0,1.7,0.3,2.3,1l1.3,1.3c0.4,0.4,1.1,0.4,1.5,0.1l1.8-1.6c0.6-0.5,1.4-0.8,2.3-0.8c0.8,0,1.7,0.3,2.3,0.8l1.8,1.6
					c0.4,0.4,1.3,0.4,1.8,0.1l2.2-1.7c0.5-0.4,1.1-0.6,1.6-0.6c0.9,0,0.7,0.9,0.7,2.2v51.6c0,1.4,0.2,1.8-0.7,1.8
					c-0.5,0-1.1-0.2-1.6-0.6l-2.3-1.7c-0.5-0.4-1.4-0.4-1.9,0l-2.3,1.6C67.4,77,66.7,77.2,65.9,77.2z"/>
				<path class="st12" d="M44.2,28.3c-1.4,0-2.6,1.2-2.6,2.6s1.2,2.6,2.6,2.6c1.4,0,2.6-1.2,2.6-2.6S45.7,28.3,44.2,28.3z
					 M44.2,32.6c-1,0-1.8-0.8-1.8-1.8s0.8-1.8,1.8-1.8c1,0,1.8,0.8,1.8,1.8S45.2,32.6,44.2,32.6z"/>
				<g>
					<g>
						<g>
							<g>
								<path class="st13" d="M44.2,30.4c1.2,1.2-6.4,6.7-15.7,9.7c0.1,0.1,0.1,0.1,0.2,0.2c0.9,0.9,1.8,1.8,2.7,2.7
									c0.8,0.8,1.2,1.8,1.2,3c0,1.9,0,3.8,0,5.8c0,3.9,0,7.8,0,11.7c0,0.3-0.1,0.5-0.2,0.8c-0.3,0.6-0.9,0.8-1.5,0.8
									c-4.7,0-9.4,0-14.1,0c-0.1,0-0.1,0-0.2,0c-1-0.1-1.6-0.7-1.6-1.7c0-5.8,0-11.7,0-17.5c0-1.1,0.4-2,1.2-2.8
									c2.1-2.2,4.3-4.3,6.4-6.4c0.7-0.7,1.7-0.7,2.4,0c0.8,0.8,1.6,1.6,2.4,2.4c0.1,0.1,0.2,0.1,0.3,0.1
									c5.9-1.8,15.8-7.7,15.7-8.5c0-0.3-0.8-0.3-1,0c-0.2,0.3,0.1-0.4,0.1-0.4S43.6,29.8,44.2,30.4z M26.1,39.8
									c-0.6-0.6-1.2-1.2-1.7-1.7c-0.3-0.3-0.5-0.3-0.8,0c-2.1,2.1-4.1,4.1-6.2,6.2c-0.5,0.5-0.8,1.2-0.8,1.9c0,5.6,0,11.3,0,16.9
									c0,0.4,0.1,0.5,0.5,0.5c4.6,0,9.2,0,13.8,0c0.4,0,0.5-0.1,0.5-0.5c0-2.8,0-5.7,0-8.5c0-1.4,0-2.9,0-4.3c0-1.4,0-2.8,0-4.3
									c0-0.8-0.3-1.4-0.8-2c-1-1-2.1-2.1-3.1-3.1c-0.1-0.1-0.2-0.1-0.3-0.1c-0.3,0.1-0.7,0.1-1,0.2c-0.3,0.1-0.5,0.2-0.9,0.3
									c0.2,0.2,0.4,0.3,0.5,0.4c1,0.9,1.1,2.5,0.2,3.6c-1,1.1-2.6,1.2-3.6,0.4c-1.1-0.9-1.3-2.5-0.5-3.6c0.5-0.6,1.2-1,2-1
									c0.1,0,0.2,0,0.2-0.1c0.4-0.6,1-0.9,1.7-1c0.1,0,0.3-0.1,0.4-0.1c0,0,0,0,0,0C26.2,39.9,26.2,39.9,26.1,39.8z M24.5,43.4
									c0,0.4-0.3,0.6-0.6,0.6c-0.3,0-0.5-0.2-0.5-0.5c0-0.4,0-0.8,0.1-1.2c0-0.1,0,0.1,0,0c-0.6,0.1-1.1,0.6-1.1,1.3
									c0,0.8,0.6,1.4,1.4,1.5c0.8,0.1,1.5-0.4,1.7-1.2c0.2-0.7-0.2-1.3-0.9-1.6C24.4,42.7,24.5,42.9,24.5,43.4z"/>
							</g>
						</g>
					</g>
					<g>
						<g>
							<g>
								<path class="st14" d="M29.5,57.3c0,0.9-0.3,1.6-1,2.1c-0.6,0.5-1.5,0.9-2.7,1v1.7h-1.1v-1.7c-1.4,0-2.6-0.3-3.6-0.7v-2.2
									c0.5,0.2,1.1,0.5,1.8,0.6c0.7,0.2,1.3,0.3,1.8,0.3v-2.6l-0.6-0.2c-1.1-0.4-1.9-0.9-2.4-1.4s-0.7-1.1-0.7-1.9
									c0-0.8,0.3-1.5,1-2s1.5-0.8,2.7-1v-1.3h1.1v1.3c1.3,0.1,2.4,0.3,3.5,0.8l-0.8,2c-0.9-0.4-1.8-0.6-2.7-0.7v2.5
									c1.1,0.4,1.9,0.8,2.3,1.1c0.5,0.3,0.8,0.6,1,1C29.4,56.4,29.5,56.8,29.5,57.3z M23.6,52.3c0,0.2,0.1,0.4,0.3,0.6
									c0.2,0.2,0.4,0.3,0.8,0.5v-2C24,51.6,23.6,51.9,23.6,52.3z M27,57.4c0-0.2-0.1-0.4-0.3-0.6c-0.2-0.2-0.5-0.3-0.9-0.5v2.1
									C26.6,58.3,27,58,27,57.4z"/>
							</g>
						</g>
					</g>
					<g>
						<g>
							<line class="st15" x1="18.9" y1="49.3" x2="18.9" y2="58.2"/>
							<g>
								<polygon class="st14" points="17.7,57.3 18.9,57.8 20,57.3 18.9,60 								"/>
							</g>
						</g>
					</g>
				</g>
			</g>
		</g>
	</g>
</g>
<g id="Capa_2" class="st18">
</g>
</svg>
