<?xml version="1.0" encoding="utf-8"?>
<!-- Generator: Adobe Illustrator 22.0.1, SVG Export Plug-In . SVG Version: 6.00 Build 0)  -->
<svg version="1.1" xmlns="http://www.w3.org/2000/svg" xmlns:xlink="http://www.w3.org/1999/xlink" x="0px" y="0px"
	 viewBox="0 0 100 100" style="enable-background:new 0 0 100 100;" xml:space="preserve">
<style type="text/css">
	.st0{fill:#0E406C;stroke:#FFFFFF;stroke-width:2;}
	.st1{fill:#FFFFFF;}
	.st2{fill:#1C8EC2;stroke:#E2EFF9;stroke-width:1.7012;}
	.st3{fill:#6698CE;}
	.st4{fill:#00426E;}
	.st5{fill:#6395CB;}
	.st6{opacity:0.8;}
	.st7{opacity:0.7;}
	.st8{opacity:0.6;}
	.st9{opacity:0.5;}
	.st10{fill:#00416D;}
	.st11{fill:#E5E6E6;}
	.st12{fill:#354455;}
	.st13{fill:#6E98CC;}
	.st14{fill:#DA9522;}
	.st15{fill:none;stroke:#DA9522;stroke-width:0.7671;stroke-miterlimit:10;}
	.st16{fill:url(#SVGID_1_);}
	.st17{fill:url(#SVGID_2_);}
	.st18{display:none;}
	.st19{display:inline;}
	.st20{opacity:0.1;fill:#AD1E1D;}
	.st21{fill:none;}
	.st22{display:inline;fill:none;}
</style>
<g id="Capa_1">
	<g>
		<path class="st3" d="M81.2,11l-4-8.6l-2.1,4.4C67.8,2.5,59.2,0,50,0C22.4,0,0,22.4,0,50c0,12.8,4.8,24.5,12.8,33.4l2.6,9l2.6-3.9
			C26.7,95.6,37.9,100,50,100c27.6,0,50-22.4,50-50C100,34.2,92.7,20.2,81.2,11z M50,97.1c-11.4,0-21.8-4.1-30-10.8l4.3-2.9
			l-10.1-2.9C7.1,72.3,2.9,61.7,2.9,50C2.9,24,24,2.9,50,2.9c8.5,0,16.5,2.3,23.4,6.3l-3.6,3.3l10.4,1.4
			C90.5,22.5,97.1,35.5,97.1,50C97.1,76,76,97.1,50,97.1z"/>
		<g>
			<g>
				<g>
					<path class="st4" d="M34.2,74V32.8c0-1.9,1.5-3.4,3.4-3.4h25c1.9,0,3.4,1.5,3.4,3.4V74c0,1.9-1.5,3.4-3.4,3.4h-25
						C35.7,77.4,34.2,75.8,34.2,74z M37.6,31.4c-0.7,0-1.4,0.6-1.4,1.4V74c0,0.7,0.6,1.4,1.4,1.4h25c0.7,0,1.4-0.6,1.4-1.4V32.8
						c0-0.7-0.6-1.4-1.4-1.4H37.6z"/>
				</g>
				<g>
					<path class="st4" d="M40.3,29.9v-5.3c0-0.8,0.7-1.5,1.5-1.5h16.4c0.8,0,1.5,0.7,1.5,1.5v5.3c0,0.8-0.7,1.5-1.5,1.5H41.9
						C41,31.4,40.3,30.8,40.3,29.9z M57.7,25.1H42.4v4.3h15.3V25.1z"/>
				</g>
			</g>
		</g>
		<g>
			<path class="st5" d="M63,38.2c0,0.8-0.7,1.5-1.5,1.5H38.6c-0.8,0-1.5-0.7-1.5-1.5v-4.4c0-0.8,0.7-1.5,1.5-1.5h22.8
				c0.8,0,1.5,0.7,1.5,1.5V38.2z"/>
		</g>
		<g class="st6">
			<path class="st5" d="M63,46.9c0,0.8-0.7,1.5-1.5,1.5H38.6c-0.8,0-1.5-0.7-1.5-1.5v-4.4c0-0.8,0.7-1.5,1.5-1.5h22.8
				c0.8,0,1.5,0.7,1.5,1.5V46.9z"/>
		</g>
		<g class="st7">
			<path class="st5" d="M63,55.5c0,0.8-0.7,1.5-1.5,1.5H38.6c-0.8,0-1.5-0.7-1.5-1.5v-4.4c0-0.8,0.7-1.5,1.5-1.5h22.8
				c0.8,0,1.5,0.7,1.5,1.5V55.5z"/>
		</g>
		<g class="st8">
			<path class="st5" d="M63,64.1c0,0.8-0.7,1.5-1.5,1.5H38.6c-0.8,0-1.5-0.7-1.5-1.5v-4.4c0-0.8,0.7-1.5,1.5-1.5h22.8
				c0.8,0,1.5,0.7,1.5,1.5V64.1z"/>
		</g>
		<g class="st9">
			<path class="st5" d="M63,72.8c0,0.8-0.7,1.5-1.5,1.5H38.6c-0.8,0-1.5-0.7-1.5-1.5v-4.4c0-0.8,0.7-1.5,1.5-1.5h22.8
				c0.8,0,1.5,0.7,1.5,1.5V72.8z"/>
		</g>
	</g>
</g>
<g id="Capa_2" class="st18">
</g>
</svg>
