<?xml version="1.0" encoding="utf-8"?>
<!-- Generator: Adobe Illustrator 22.0.1, SVG Export Plug-In . SVG Version: 6.00 Build 0)  -->
<svg version="1.1" xmlns="http://www.w3.org/2000/svg" xmlns:xlink="http://www.w3.org/1999/xlink" x="0px" y="0px"
	 viewBox="0 0 100 100" style="enable-background:new 0 0 100 100;" xml:space="preserve">
<style type="text/css">
	.st0{fill:#0E406C;stroke:#FFFFFF;stroke-width:2;}
	.st1{fill:#FFFFFF;}
	.st2{fill:#1C8EC2;stroke:#E2EFF9;stroke-width:1.7012;}
	.st3{fill:#6698CE;}
	.st4{fill:#00426E;}
	.st5{fill:#6395CB;}
	.st6{opacity:0.8;}
	.st7{opacity:0.7;}
	.st8{opacity:0.6;}
	.st9{opacity:0.5;}
	.st10{fill:#00416D;}
	.st11{fill:#E5E6E6;}
	.st12{fill:#354455;}
	.st13{fill:#6E98CC;}
	.st14{fill:#DA9522;}
	.st15{fill:none;stroke:#DA9522;stroke-width:0.7671;stroke-miterlimit:10;}
	.st16{fill:url(#SVGID_1_);}
	.st17{fill:url(#SVGID_2_);}
	.st18{display:none;}
	.st19{display:inline;}
	.st20{opacity:0.1;fill:#AD1E1D;}
	.st21{fill:none;}
	.st22{display:inline;fill:none;}
</style>
<g id="Capa_1">
	<g>
		<g>
			<g>
				<path class="st10" d="M53,36.1c0-0.7-0.8-1-1.4-1l-3.1,0.1c-0.5-1.9-1.2-3.4-2.1-4.8l0-0.1l2.1-2.3c0.5-0.5,0.5-1.3,0-1.8
					l-3.9-3.7c-0.5-0.5-1.3-0.5-1.8,0l-2.1,2.2c-1.5-0.9-2.9-1.5-4.8-1.8l0,0l-0.1-3.1c0-0.7-0.7-1.2-1.3-1.1l-5.4,0.1
					c-0.7,0-0.9,0.5-0.9,1.2l0.1,3.1c-1.9,0.5-3.5,1.2-4.9,2.1l-0.1,0L21,23.2c-0.5-0.5-1.3-0.5-1.8,0l-3.7,3.9
					c-0.5,0.5-0.5,1.3,0,1.8l2.2,2.2C17,32.6,16.3,34,16,36h0l-3.1,0.1c-0.7,0-1.1,0.4-1,1.1l0.1,5.4c0,0.7,0.4,1.2,1.1,1.1l3.1-0.1
					c0.5,1.9,1.2,3.3,2.1,4.8l0,0l-2.1,2.2c-0.5,0.5-0.5,1.3,0,1.8l3.9,3.7c0.5,0.5,1.3,0.5,1.8,0l1.4-1.4l0.9-0.8
					c0.9,0.5,1.8,0.9,2.8,1.3c0.2,0.1,0.4,0.1,0.6,0.2c0,0,0,0,0,0c0.5,0.1,1.1,0.3,1.6,0.4v0l0,1.5l0,1.6c0,0.7,0.3,1.3,1,1.3
					l5.4-0.1c0.7,0,1.3-0.6,1.2-1.3l0-1.4l0-1.7c0.4-0.1,0.7-0.2,1.1-0.3c0.2-0.1,0.4-0.1,0.6-0.2c1.1-0.4,2.1-1,3.1-1.6l0,0
					l0.6,0.5l1.7,1.6c0.5,0.5,1.3,0.5,1.7,0l3.7-3.9c0.5-0.5,0.5-1.3,0-1.8l-2.2-2.1c0.9-1.5,1.5-3.2,1.8-4.9h0l3.1-0.1
					c0.7,0,1.4-0.6,1.4-1.2L53,36.1z M32.5,53.7c-7.9,0-14.3-6.4-14.3-14.3s6.4-14.3,14.3-14.3c7.9,0,14.3,6.4,14.3,14.3
					S40.4,53.7,32.5,53.7z"/>
			</g>
			<circle class="st5" cx="32.6" cy="32.7" r="4.2"/>
			<path class="st5" d="M41.9,42.2c-0.8-4.8-5.1-4.7-5.1-4.7v0h-8.5v0c0,0-4.3-0.2-5.1,4.7v0.4c0,0,0,0,0,0v7.2
				c1.1,0.9,2.3,1.7,3.6,2.3v-8.4h0.6v8.6c1.6,0.6,3.2,0.9,5,0.9c1.9,0,3.6-0.4,5.3-1v-8.5h0.6v8.3c1.3-0.6,2.5-1.4,3.6-2.4v-5.8h0
				V42.2z"/>
			<g>
				<polygon class="st10" points="33.1,41.3 32.5,41.3 32,41.3 31.3,49.9 32.5,51.1 33.7,49.9 				"/>
				<polygon class="st10" points="32.5,38.7 31.5,39.5 31.9,40.7 32.5,40.7 33.1,40.7 33.5,39.5 				"/>
			</g>
			<g>
				<path class="st5" d="M88,56.7c0-0.7-0.8-1-1.4-1l-3.1,0.1c-0.5-1.9-1.2-3.4-2.1-4.8l0-0.1l2.1-2.3c0.5-0.5,0.5-1.3,0-1.8
					l-3.9-3.7c-0.5-0.5-1.3-0.5-1.8,0l-2.1,2.2c-1.5-0.9-2.9-1.5-4.8-1.8l0,0l-0.1-3.1c0-0.7-0.7-1.2-1.3-1.1l-5.4,0.1
					c-0.7,0-0.9,0.5-0.9,1.2l0.1,3.1c-1.9,0.5-3.5,1.2-4.9,2.1l-0.1,0L56,43.8c-0.5-0.5-1.3-0.5-1.8,0l-3.7,3.9
					c-0.5,0.5-0.5,1.3,0,1.8l2.2,2.2c-0.9,1.5-1.5,2.9-1.8,4.9h0l-3.1,0.1c-0.7,0-1.1,0.4-1,1.1l0.1,5.4c0,0.7,0.4,1.2,1.1,1.1
					l3.1-0.1c0.5,1.9,1.2,3.3,2.1,4.8l0,0l-2.1,2.2c-0.5,0.5-0.5,1.3,0,1.8l3.9,3.7c0.5,0.5,1.3,0.5,1.8,0l1.4-1.4l0.9-0.8
					c0.9,0.5,1.8,0.9,2.8,1.3c0.2,0.1,0.4,0.1,0.6,0.2c0,0,0,0,0,0c0.5,0.1,1.1,0.3,1.6,0.4v0l0,1.5l0,1.6c0,0.7,0.3,1.3,1,1.3
					l5.4-0.1c0.7,0,1.3-0.6,1.2-1.3l0-1.4l0-1.7c0.4-0.1,0.7-0.2,1.1-0.3c0.2-0.1,0.4-0.1,0.6-0.2c1.1-0.4,2.1-1,3.1-1.6l0,0
					l0.6,0.5l1.7,1.6c0.5,0.5,1.3,0.5,1.7,0l3.7-3.9c0.5-0.5,0.5-1.3,0-1.8l-2.2-2.1c0.9-1.5,1.5-3.2,1.8-4.9h0l3.1-0.1
					c0.7,0,1.4-0.6,1.4-1.2L88,56.7z M77,70.3c-1.1,1-2.3,1.8-3.6,2.4c-0.2,0.1-0.4,0.2-0.6,0.3c-1.6,0.7-3.4,1-5.3,1
					c-1.8,0-3.5-0.3-5-0.9c-0.2-0.1-0.4-0.2-0.6-0.3c-1.3-0.6-2.5-1.4-3.6-2.3c-2.9-2.6-4.7-6.3-4.7-10.5c0-7.7,6.3-14,14-14
					c7.7,0,14,6.3,14,14C81.5,64.1,79.7,67.7,77,70.3z"/>
			</g>
			<circle class="st10" cx="67.6" cy="53.3" r="4.2"/>
			<path class="st10" d="M77,62.8c-0.8-4.8-5.1-4.7-5.1-4.7v0h-8.5v0c0,0-4.3-0.2-5.1,4.7v0.4c0,0,0,0,0,0v7.2
				c1.1,0.9,2.3,1.7,3.6,2.3v-8.4h0.6v8.6c1.6,0.6,3.2,0.9,5,0.9c1.9,0,3.6-0.4,5.3-1v-8.5h0.6v8.3c1.3-0.6,2.5-1.4,3.6-2.4v-5.8h0
				V62.8z"/>
			<g>
				<polygon class="st5" points="68.2,61.9 67.6,61.9 67,61.9 66.4,70.5 67.6,71.7 68.8,70.5 				"/>
				<polygon class="st5" points="67.6,59.4 66.6,60.1 67,61.4 67.6,61.4 68.2,61.4 68.6,60.1 				"/>
			</g>
		</g>
		<path class="st3" d="M81.2,11l-4-8.6l-2.1,4.4C67.8,2.5,59.2,0,50,0C22.4,0,0,22.4,0,50c0,12.8,4.8,24.5,12.8,33.4l2.6,9l2.6-3.9
			C26.7,95.6,37.9,100,50,100c27.6,0,50-22.4,50-50C100,34.2,92.7,20.2,81.2,11z M50,97.1c-11.4,0-21.8-4.1-30-10.8l4.3-2.9
			l-10.1-2.9C7.1,72.3,2.9,61.7,2.9,50C2.9,24,24,2.9,50,2.9c8.5,0,16.5,2.3,23.4,6.3l-3.6,3.3l10.4,1.4
			C90.5,22.5,97.1,35.5,97.1,50C97.1,76,76,97.1,50,97.1z"/>
	</g>
</g>
<g id="Capa_2" class="st18">
</g>
</svg>
