<?xml version="1.0" encoding="utf-8"?>
<!-- Generator: Adobe Illustrator 22.0.1, SVG Export Plug-In . SVG Version: 6.00 Build 0)  -->
<svg version="1.1" xmlns="http://www.w3.org/2000/svg" xmlns:xlink="http://www.w3.org/1999/xlink" x="0px" y="0px"
	 viewBox="0 0 100 100" style="enable-background:new 0 0 100 100;" xml:space="preserve">
<style type="text/css">
	.st0{fill:#0E406C;stroke:#FFFFFF;stroke-width:2;}
	.st1{fill:#FFFFFF;}
	.st2{fill:#1C8EC2;stroke:#E2EFF9;stroke-width:1.7012;}
	.st3{fill:#6698CE;}
	.st4{fill:#00426E;}
	.st5{fill:#6395CB;}
	.st6{opacity:0.8;}
	.st7{opacity:0.7;}
	.st8{opacity:0.6;}
	.st9{opacity:0.5;}
	.st10{fill:#00416D;}
	.st11{fill:#E5E6E6;}
	.st12{fill:#354455;}
	.st13{fill:#6E98CC;}
	.st14{fill:#DA9522;}
	.st15{fill:none;stroke:#DA9522;stroke-width:0.7671;stroke-miterlimit:10;}
	.st16{fill:url(#SVGID_1_);}
	.st17{fill:url(#SVGID_2_);}
	.st18{display:none;}
	.st19{display:inline;}
	.st20{opacity:0.1;fill:#AD1E1D;}
	.st21{fill:none;}
	.st22{display:inline;fill:none;}
</style>
<g id="Capa_1">
	<g>
		<path class="st3" d="M81.2,11l-4-8.6l-2.1,4.4C67.8,2.5,59.2,0,50,0C22.4,0,0,22.4,0,50c0,12.8,4.8,24.5,12.8,33.4l2.6,9l2.6-3.9
			C26.7,95.6,37.9,100,50,100c27.6,0,50-22.4,50-50C100,34.2,92.7,20.2,81.2,11z M50,97.1c-11.4,0-21.8-4.1-30-10.8l4.3-2.9
			l-10.1-2.9C7.1,72.3,2.9,61.7,2.9,50C2.9,24,24,2.9,50,2.9c8.5,0,16.5,2.3,23.4,6.3l-3.6,3.3l10.4,1.4
			C90.5,22.5,97.1,35.5,97.1,50C97.1,76,76,97.1,50,97.1z"/>
		<g>
			<path class="st10" d="M65.2,72.2H36c8.1-1.6,9.6-7.7,9.6-7.7l5,0.1l5-0.1C55.6,64.5,57.1,70.6,65.2,72.2z"/>
			<path class="st10" d="M23.8,59.2v4.5c0,1.2,1.1,2.2,2.4,2.2H75c1.3,0,2.4-1,2.4-2.2v-4.5H23.8z"/>
			<path class="st10" d="M77.4,32.4c0-1.6-1.1-2.8-2.4-2.8H26.2c-1.3,0-2.4,1.2-2.4,2.8v26.8h53.6V32.4z"/>
			<path class="st1" d="M75.2,33.9c0-1.4-1-2.4-2.2-2.4H28.2c-1.2,0-2.2,1.1-2.2,2.4v23.4h49.2V33.9z"/>
			<circle class="st11" cx="50.6" cy="62.5" r="2"/>
			<path class="st10" d="M66.6,70.7H34.6c-0.4,0-0.7,0.3-0.7,0.7v0.7c0,0.4,0.3,0.7,0.7,0.7h32.1c0.4,0,0.7-0.3,0.7-0.7v-0.7
				C67.3,71,67,70.7,66.6,70.7z"/>
			<g>
				<g>
					<path class="st5" d="M58.3,36.9c0,0-0.1-0.1-0.1-0.1c0,0,0,0,0,0c-2-2-4.7-3.1-7.6-3.1c-2.7,0-5.3,1-7.3,2.9
						c-0.1,0.1-0.1,0.1-0.2,0.2c0,0-0.1,0.1-0.1,0.1c-2,2-3.1,4.7-3.1,7.6c0,2.9,1.1,5.6,3.1,7.6c2,2,4.7,3.1,7.6,3.1
						c2.9,0,5.6-1.1,7.6-3.1s3.1-4.7,3.1-7.6C61.3,41.6,60.3,39,58.3,36.9z M52.3,54.7c-0.4,0.1-0.8,0.1-1.2,0.1c-0.2,0-0.3,0-0.5,0
						c-0.2,0-0.3,0-0.5,0c-0.4,0-0.8-0.1-1.2-0.1c-5-0.8-8.8-5.1-8.8-10.3c0,0,0-0.1,0-0.1s0-0.1,0-0.1c0-2.9,1.2-5.5,3.2-7.4
						c0.1-0.1,0.1-0.1,0.2-0.2c1.5-1.4,3.4-2.4,5.5-2.7c0.4-0.1,0.8-0.1,1.2-0.1c0.2,0,0.3,0,0.5,0c0.2,0,0.3,0,0.5,0
						c0.4,0,0.8,0.1,1.2,0.1c2.2,0.4,4.2,1.4,5.7,2.9c0.1,0.1,0.1,0.1,0.2,0.2c1.8,1.9,2.9,4.4,2.9,7.2c0,0,0,0.1,0,0.1s0,0.1,0,0.1
						C61,49.7,57.2,53.9,52.3,54.7z"/>
					<path class="st5" d="M50.6,55.6c-3,0-5.8-1.2-7.9-3.3c-2.1-2.1-3.3-4.9-3.3-7.9c0-3,1.2-5.8,3.3-7.9c0,0,0.1-0.1,0.1-0.1
						c0.1-0.1,0.1-0.1,0.2-0.2c2.1-2,4.8-3,7.7-3c3,0,5.8,1.2,7.9,3.3c0,0,0,0,0,0c0,0,0.1,0.1,0.1,0.1l0,0c2,2.1,3.1,4.9,3.1,7.8
						c0,3-1.2,5.8-3.3,7.9C56.4,54.4,53.6,55.6,50.6,55.6z M50.6,34.4c-0.2,0-0.3,0-0.5,0c-0.4,0-0.8,0.1-1.1,0.1
						c-2,0.3-3.8,1.2-5.2,2.6c-0.1,0-0.1,0.1-0.2,0.2c-1.9,1.9-3,4.4-3,7c0,0,0,0.1,0,0.1c0,0,0,0.1,0,0.1c0.1,4.9,3.6,9,8.4,9.8
						c0.4,0.1,0.7,0.1,1.1,0.1c0.3,0,0.6,0,0.9,0c0.4,0,0.8-0.1,1.1-0.1l0,0c4.8-0.8,8.4-4.9,8.4-9.8c0,0,0-0.1,0-0.1
						c0,0,0-0.1,0-0.1c0-2.6-1-5-2.8-6.8c-0.1-0.1-0.1-0.1-0.2-0.2c-1.5-1.5-3.4-2.5-5.5-2.8c-0.4-0.1-0.8-0.1-1.1-0.1
						C50.9,34.4,50.8,34.4,50.6,34.4z"/>
				</g>
				<path class="st5" d="M58.5,36.8c0,0-0.1-0.1-0.1-0.1c0,0,0,0,0,0l-0.2-0.2L58,36.6c-0.1,0.1-0.1,0.1-0.2,0.2
					c-0.6,0.6-1.3,1-2,1.4c-0.1,0-0.1,0.1-0.2,0.1c-1,0.5-2,0.9-3.1,1.1c-0.1,0-0.1,0-0.2,0c-0.5,0.1-1,0.1-1.5,0.1
					c-0.7,0-1.3-0.1-2-0.2c-0.1,0-0.1,0-0.2,0c-1.1-0.2-2.1-0.6-3-1.2c-0.1,0-0.1-0.1-0.2-0.1c-0.7-0.4-1.3-0.9-1.8-1.4
					c-0.1-0.1-0.1-0.1-0.2-0.2l-0.2-0.2l-0.2,0.2c-0.1,0-0.1,0.1-0.2,0.2l-0.2,0.2l0.2,0.2c0,0,0.1,0.1,0.1,0.1c0,0,0,0,0,0
					c0.6,0.6,1.3,1.1,2,1.6c0.1,0,0.1,0.1,0.2,0.1c1,0.6,2.1,1,3.2,1.3c0.1,0,0.2,0,0.2,0c0.7,0.1,1.4,0.2,2.1,0.2
					c0.5,0,1.1,0,1.6-0.1c0.1,0,0.2,0,0.2,0c1.2-0.2,2.3-0.6,3.3-1.1c0.1,0,0.1-0.1,0.2-0.1c0.8-0.4,1.5-1,2.1-1.6
					c0.1-0.1,0.1-0.1,0.2-0.2l0.2-0.2L58.5,36.8z"/>
				<path class="st5" d="M58.5,51.6c-0.1-0.1-0.1-0.1-0.2-0.2c-0.6-0.6-1.4-1.1-2.1-1.6c-0.1,0-0.1-0.1-0.2-0.1
					c-1-0.6-2.2-0.9-3.3-1.1c-0.1,0-0.1,0-0.2,0c-0.5-0.1-1.1-0.1-1.6-0.1c-0.7,0-1.4,0.1-2.1,0.2c-0.1,0-0.1,0-0.2,0
					c-1.1,0.2-2.2,0.7-3.2,1.3c-0.1,0-0.1,0.1-0.2,0.1c-0.7,0.4-1.4,1-2,1.6c0,0,0,0,0,0c0,0-0.1,0.1-0.1,0.1l-0.2,0.2l0.2,0.2
					c0.1,0.1,0.1,0.1,0.2,0.2l0.2,0.2l0.2-0.2c0,0,0.1-0.1,0.2-0.2c0.6-0.5,1.2-1,1.8-1.4c0.1,0,0.1-0.1,0.2-0.1c0.9-0.6,2-1,3-1.2
					c0.1,0,0.1,0,0.2,0c0.6-0.1,1.3-0.2,2-0.2c0.5,0,1,0,1.5,0.1c0.1,0,0.1,0,0.2,0c1.1,0.2,2.1,0.5,3.1,1.1c0.1,0,0.1,0.1,0.2,0.1
					c0.7,0.4,1.4,0.9,2,1.4c0.1,0,0.1,0.1,0.2,0.2l0.2,0.2l0.2-0.2c0,0,0,0,0,0c0,0,0.1-0.1,0.1-0.1l0.2-0.2L58.5,51.6z"/>
				<path class="st5" d="M54.7,36.7c-1.1-2.1-2.5-3.3-4.1-3.3c-1.5,0-3,1.2-4.1,3.3c-1,2.1-1.6,4.8-1.6,7.7s0.6,5.6,1.6,7.7
					c1.1,2.1,2.5,3.3,4.1,3.3c1.5,0,3-1.2,4.1-3.3c1-2.1,1.6-4.8,1.6-7.7S55.7,38.8,54.7,36.7z M50.6,54.6c-1.3,0-2.6-1-3.6-3
					c-1-1.9-1.5-4.5-1.5-7.3c0-2.8,0.5-5.3,1.5-7.3c1-1.9,2.2-3,3.6-3c1.3,0,2.6,1,3.6,3c1,1.9,1.5,4.5,1.5,7.3
					c0,2.8-0.5,5.3-1.5,7.3C53.2,53.6,51.9,54.6,50.6,54.6z"/>
				<path class="st5" d="M61.2,44H40c-0.2,0-0.4,0.2-0.4,0.4c0,0.2,0.2,0.4,0.4,0.4h21.2c0.2,0,0.4-0.2,0.4-0.4
					C61.6,44.2,61.4,44,61.2,44z"/>
				<path class="st5" d="M50.9,55V33.8c0-0.2-0.2-0.4-0.4-0.4s-0.4,0.2-0.4,0.4V55c0,0.2,0.2,0.4,0.4,0.4S50.9,55.2,50.9,55z"/>
			</g>
		</g>
	</g>
</g>
<g id="Capa_2" class="st18">
</g>
</svg>
