<?xml version="1.0" encoding="utf-8"?>
<!-- Generator: Adobe Illustrator 22.0.1, SVG Export Plug-In . SVG Version: 6.00 Build 0)  -->
<svg version="1.1" id="Capa_1" xmlns="http://www.w3.org/2000/svg" xmlns:xlink="http://www.w3.org/1999/xlink" x="0px" y="0px"
	 viewBox="0 0 250 68.4" style="enable-background:new 0 0 250 68.4;" xml:space="preserve">
<style type="text/css">
	.st0{fill:#FFFFFF;}
</style>
<g id="XMLID_155_">
	<g id="XMLID_156_">
		<g id="XMLID_161_">
			<g id="XMLID_162_">
				<path id="XMLID_170_" class="st0" d="M13.1,38v26.4H1.5V24.2L13.1,23v3.8c2.6-2.5,5.9-3.6,9.9-3.6c5.3,0,9.2,1.6,12,4.7
					c3-3.1,7.6-4.7,13.6-4.7c5.3,0,9.2,1.6,12,4.7c2.8,3.2,4.1,6.8,4.1,10.9v25.6H53.1V41.6c0-2.8-0.6-4.9-1.8-6.4
					c-1.3-1.5-3.4-2.8-6-2.4c-2.6,0.4-4.3,1.7-5.9,4.5l0,0l-0.2,26.9H27.6V41.6c0-2.8-0.6-4.9-1.8-6.4c-1.3-1.5-3-2.6-6-2.4
					C17.2,33,14.9,34.6,13.1,38z"/>
				<path id="XMLID_167_" class="st0" d="M110.8,43.6c0-6-1.8-11-5.4-14.8c-3.5-3.9-8.4-5.8-14.5-5.8c-6,0-11,1.9-14.8,5.8
					c-3.9,3.9-5.8,8.8-5.8,14.8s1.9,11,5.8,14.8c3.9,3.9,8.8,5.8,14.8,5.8c8.3,0,13.9-2,16.9-6.2l-6.6-6.5c-3,2.3-6.4,3.3-10.3,3.3
					c-2.3,0-4.1-0.6-5.8-1.8c-1.6-1.3-2.6-3-2.9-5.1h28.4v-4.2H110.8z M82.7,39.6c0-2.3,0.9-4,2.5-5.1c1.6-1.3,3.5-1.8,5.8-1.8
					s4.1,0.6,5.8,1.8c1.6,1.3,2.5,3,2.5,5.1H82.7z"/>
				<path id="XMLID_166_" class="st0" d="M159.2,64.3v-33H153V22h6.2v-5.6c0-4.1,1.4-7.5,4.1-10.1c2.8-2.6,6.4-4,11.2-4
					c4.9,0,8.8,1.4,11.6,4.1l-6.1,6.9c-0.8-0.9-2.1-1.3-4.1-1.3c-1.5,0-2.7,0.4-3.5,1.3c-1,0.9-1.4,2.5-1.4,4.6v3.9h6.2V31l-6.2,0.1
					v33h-11.7V64.3z"/>
				<path id="XMLID_165_" class="st0" d="M190.7,9c1.1-1.1,2.6-1.7,4.5-1.7s3.5,0.5,4.6,1.7c1.1,1.1,1.6,2.5,1.6,4.2
					c0,1.6-0.5,3-1.6,4.1c-1.1,1.1-2.6,1.6-4.5,1.6c-1.9,0-3.4-0.5-4.5-1.6c-1.1-1.1-1.6-2.5-1.6-4.1C188.9,11.5,189.6,10.1,190.7,9
					z"/>
				<rect id="XMLID_164_" x="189.4" y="23.1" class="st0" width="11.6" height="41.3"/>
				<path id="XMLID_163_" class="st0" d="M222.6,27.2l5,7l7.5-11h11.7l-13.3,19.6l14.7,21.4c0,0-1.7,0-5.3,0c-5.5,0-6.6-0.5-8.8-3.2
					c-1-1.5-6.5-9.7-6.5-9.7l-8.8,12.9h-11.8l14.7-21.4l-13.4-19.7c0,0,4.3,0,6.8,0C217.7,23.1,220.2,24.3,222.6,27.2z"/>
			</g>
		</g>
		<g id="XMLID_157_">
			<path id="XMLID_158_" class="st0" d="M126.2,64.5c-0.2,0.9-0.3,1.8-0.5,2.8c-0.8-0.9-1.4-1.6-1.9-2.4c-0.6-0.9-1.4-1.5-2.4-1.9
				c-6-3.3-9.1-12-3.3-19c2.8-3.3,6.5-5.1,10.7-6.1c1.2-0.3,2.4-0.6,3.5-1.1c0.6-0.3,1.3-0.8,1.8-1.3c0.6-0.6,0.9-1.4,0.5-2.4
				c-0.3-0.9-1.1-1.4-2-1.5c-1.3-0.1-2.6,0.1-3.6,0.6c-1.8,0.9-3.5,1.9-5.4,2.9c-0.2,0.1-0.4,0.3-0.6,0.4c-2.6-3.1-5-6.1-7.7-9.2
				c5.8-4.9,12.4-6.4,19.8-5.4c0.1-0.6,0.1-1.2,0.2-2c0.6,0.6,1.2,1.2,1.7,1.8c0.8,0.9,1.5,1.5,2.6,1.9c2.9,1.4,5.3,3.4,6.6,6.4
				c2.8,5.7,0.4,13.2-5.1,16.3c-3,1.7-6.2,2.6-9.5,3c-0.6,0.1-1.3,0.3-1.9,0.6c-0.8,0.4-1.2,1.1-1.2,2c0.1,1,0.5,1.6,1.4,1.9
				c1.3,0.5,2.6,0.4,4,0.2c2.6-0.4,4.9-1.3,7.1-2.9c0.1-0.1,0.2-0.1,0.4-0.2c2,2.5,4.2,4.9,6.3,7.4c-2.8,2.9-6,4.9-9.9,6
				C134,64.8,130.2,64.9,126.2,64.5z M123.3,33.4c0.3-0.2,0.5-0.4,0.8-0.5c2.4-1.7,4.8-3.1,7.8-3.4c2.1-0.2,4.1,0.8,4.9,2.7
				c1,1.9,0.5,3.9-1.1,5.5c-1.4,1.4-3.1,2-4.9,2.6c-1.2,0.3-2.4,0.5-3.5,0.9c-3.4,1.2-6.4,2.9-8.5,6c-3.5,5.5-0.9,11.8,3.4,14.5
				c0.5,0.3,1.1,0.4,1.7,0.3c1.2-0.2,2.5-0.3,3.9-0.4c-0.3,0.6-0.6,1.1-1,1.7c7.3,0.9,14.2,0.2,19.7-5.3c-1.8-2-3.5-4.1-5.3-6
				c-1.6,0.8-3,1.6-4.5,2.3c-2.1,0.9-4.3,1.4-6.6,1c-1.8-0.3-3-1.4-3.4-3.1c-0.3-1.5,0.3-3.2,1.8-4.1c1-0.5,2-1,3.1-1.1
				c3.1-0.4,6.1-1.3,8.9-2.9c4.1-2.3,6.4-7.7,5.4-12.2c-0.9-3.6-3.1-6.1-6.3-7.9c-0.9-0.5-1.7-0.8-2.7-0.4c-0.8,0.2-1.6,0.2-2.6,0.3
				c0.3-0.6,0.4-1.2,0.6-1.7c-6.4-1.8-15,1.1-18.1,5C119,29,121.2,31.1,123.3,33.4z"/>
		</g>
	</g>
</g>
</svg>
